<mxfile host="Electron" agent="Mozilla/5.0 (Macintosh; Intel Mac OS X 10_15_7) AppleWebKit/537.36 (KHTML, like Gecko) draw.io/28.1.2 Chrome/138.0.7204.243 Electron/37.4.0 Safari/537.36" version="28.1.2">
  <diagram name="Page-1" id="_SwwrLTQsyD0Fj5lO8iF">
    <mxGraphModel dx="1426" dy="859" grid="1" gridSize="10" guides="1" tooltips="1" connect="1" arrows="1" fold="1" page="1" pageScale="1" pageWidth="827" pageHeight="1169" math="0" shadow="0">
      <root>
        <mxCell id="0" />
        <mxCell id="1" parent="0" />
        <mxCell id="7GvROdGBeF6tqrjPkgx6-1" value="&lt;h1 style=&quot;margin-top: 0px;&quot;&gt;Application e-commerce&lt;/h1&gt;&lt;p&gt;Diagramme de composants&lt;br&gt;v1 - n-tier sans BDD&lt;/p&gt;" style="text;html=1;whiteSpace=wrap;overflow=hidden;rounded=0;align=center;" vertex="1" parent="1">
          <mxGeometry x="266" y="20" width="296" height="120" as="geometry" />
        </mxCell>
        <mxCell id="7GvROdGBeF6tqrjPkgx6-2" value="&lt;b&gt;tp-e-commerce&lt;/b&gt;" style="verticalAlign=top;align=left;spacingTop=8;spacingLeft=2;spacingRight=12;shape=cube;size=10;direction=south;fontStyle=4;html=1;whiteSpace=wrap;" vertex="1" parent="1">
          <mxGeometry x="30" y="123" width="880" height="1617" as="geometry" />
        </mxCell>
        <mxCell id="7GvROdGBeF6tqrjPkgx6-3" value="&lt;b&gt;business&lt;/b&gt;" style="shape=umlFrame;whiteSpace=wrap;html=1;pointerEvents=0;width=70;height=30;fillColor=#dae8fc;strokeColor=#6c8ebf;" vertex="1" parent="1">
          <mxGeometry x="130" y="710" width="660" height="400" as="geometry" />
        </mxCell>
        <mxCell id="7GvROdGBeF6tqrjPkgx6-4" value="&lt;b&gt;data&lt;/b&gt;" style="shape=umlFrame;whiteSpace=wrap;html=1;pointerEvents=0;width=70;height=30;fillColor=#d5e8d4;strokeColor=#82b366;" vertex="1" parent="1">
          <mxGeometry x="112" y="1210" width="700" height="370" as="geometry" />
        </mxCell>
        <mxCell id="7GvROdGBeF6tqrjPkgx6-5" value="&lt;b&gt;presentation&lt;/b&gt;" style="shape=umlFrame;whiteSpace=wrap;html=1;pointerEvents=0;width=90;height=30;fillColor=#ffe6cc;strokeColor=#d79b00;" vertex="1" parent="1">
          <mxGeometry x="70" y="180" width="790" height="460" as="geometry" />
        </mxCell>
        <mxCell id="7GvROdGBeF6tqrjPkgx6-6" value="&lt;b&gt;services&lt;/b&gt;" style="shape=umlFrame;whiteSpace=wrap;html=1;pointerEvents=0;width=70;height=30;fillColor=#dae8fc;strokeColor=#6c8ebf;" vertex="1" parent="1">
          <mxGeometry x="150" y="750" width="620" height="340" as="geometry" />
        </mxCell>
        <mxCell id="7GvROdGBeF6tqrjPkgx6-9" value="AddToCartService" style="html=1;dropTarget=0;whiteSpace=wrap;" vertex="1" parent="1">
          <mxGeometry x="370" y="800" width="180" height="60" as="geometry" />
        </mxCell>
        <mxCell id="7GvROdGBeF6tqrjPkgx6-10" value="" style="shape=module;jettyWidth=8;jettyHeight=4;" vertex="1" parent="7GvROdGBeF6tqrjPkgx6-9">
          <mxGeometry x="1" width="20" height="20" relative="1" as="geometry">
            <mxPoint x="-27" y="7" as="offset" />
          </mxGeometry>
        </mxCell>
        <mxCell id="7GvROdGBeF6tqrjPkgx6-11" value="CheckoutOrderService" style="html=1;dropTarget=0;whiteSpace=wrap;" vertex="1" parent="1">
          <mxGeometry x="560" y="800" width="180" height="60" as="geometry" />
        </mxCell>
        <mxCell id="7GvROdGBeF6tqrjPkgx6-12" value="" style="shape=module;jettyWidth=8;jettyHeight=4;" vertex="1" parent="7GvROdGBeF6tqrjPkgx6-11">
          <mxGeometry x="1" width="20" height="20" relative="1" as="geometry">
            <mxPoint x="-27" y="7" as="offset" />
          </mxGeometry>
        </mxCell>
        <mxCell id="7GvROdGBeF6tqrjPkgx6-13" value="ClearCart&lt;span style=&quot;background-color: transparent; color: light-dark(rgb(0, 0, 0), rgb(255, 255, 255));&quot;&gt;Service&lt;/span&gt;" style="html=1;dropTarget=0;whiteSpace=wrap;" vertex="1" parent="1">
          <mxGeometry x="370" y="870" width="180" height="60" as="geometry" />
        </mxCell>
        <mxCell id="7GvROdGBeF6tqrjPkgx6-14" value="" style="shape=module;jettyWidth=8;jettyHeight=4;" vertex="1" parent="7GvROdGBeF6tqrjPkgx6-13">
          <mxGeometry x="1" width="20" height="20" relative="1" as="geometry">
            <mxPoint x="-27" y="7" as="offset" />
          </mxGeometry>
        </mxCell>
        <mxCell id="7GvROdGBeF6tqrjPkgx6-15" value="GetCart&lt;span style=&quot;background-color: transparent; color: light-dark(rgb(0, 0, 0), rgb(255, 255, 255));&quot;&gt;Service&lt;/span&gt;" style="html=1;dropTarget=0;whiteSpace=wrap;" vertex="1" parent="1">
          <mxGeometry x="370" y="940" width="180" height="60" as="geometry" />
        </mxCell>
        <mxCell id="7GvROdGBeF6tqrjPkgx6-16" value="" style="shape=module;jettyWidth=8;jettyHeight=4;" vertex="1" parent="7GvROdGBeF6tqrjPkgx6-15">
          <mxGeometry x="1" width="20" height="20" relative="1" as="geometry">
            <mxPoint x="-27" y="7" as="offset" />
          </mxGeometry>
        </mxCell>
        <mxCell id="7GvROdGBeF6tqrjPkgx6-17" value="GetOrderDetailsService" style="html=1;dropTarget=0;whiteSpace=wrap;" vertex="1" parent="1">
          <mxGeometry x="560" y="870" width="180" height="60" as="geometry" />
        </mxCell>
        <mxCell id="7GvROdGBeF6tqrjPkgx6-18" value="" style="shape=module;jettyWidth=8;jettyHeight=4;" vertex="1" parent="7GvROdGBeF6tqrjPkgx6-17">
          <mxGeometry x="1" width="20" height="20" relative="1" as="geometry">
            <mxPoint x="-27" y="7" as="offset" />
          </mxGeometry>
        </mxCell>
        <mxCell id="7GvROdGBeF6tqrjPkgx6-19" value="ListOrdersService" style="html=1;dropTarget=0;whiteSpace=wrap;" vertex="1" parent="1">
          <mxGeometry x="560" y="940" width="180" height="60" as="geometry" />
        </mxCell>
        <mxCell id="7GvROdGBeF6tqrjPkgx6-20" value="" style="shape=module;jettyWidth=8;jettyHeight=4;" vertex="1" parent="7GvROdGBeF6tqrjPkgx6-19">
          <mxGeometry x="1" width="20" height="20" relative="1" as="geometry">
            <mxPoint x="-27" y="7" as="offset" />
          </mxGeometry>
        </mxCell>
        <mxCell id="7GvROdGBeF6tqrjPkgx6-21" value="ListProductsService" style="html=1;dropTarget=0;whiteSpace=wrap;" vertex="1" parent="1">
          <mxGeometry x="180" y="800" width="180" height="60" as="geometry" />
        </mxCell>
        <mxCell id="7GvROdGBeF6tqrjPkgx6-22" value="" style="shape=module;jettyWidth=8;jettyHeight=4;" vertex="1" parent="7GvROdGBeF6tqrjPkgx6-21">
          <mxGeometry x="1" width="20" height="20" relative="1" as="geometry">
            <mxPoint x="-27" y="7" as="offset" />
          </mxGeometry>
        </mxCell>
        <mxCell id="7GvROdGBeF6tqrjPkgx6-23" value="RemoveFromCart&lt;span style=&quot;background-color: transparent; color: light-dark(rgb(0, 0, 0), rgb(255, 255, 255));&quot;&gt;Service&lt;/span&gt;" style="html=1;dropTarget=0;whiteSpace=wrap;" vertex="1" parent="1">
          <mxGeometry x="370" y="1010" width="180" height="60" as="geometry" />
        </mxCell>
        <mxCell id="7GvROdGBeF6tqrjPkgx6-24" value="" style="shape=module;jettyWidth=8;jettyHeight=4;" vertex="1" parent="7GvROdGBeF6tqrjPkgx6-23">
          <mxGeometry x="1" width="20" height="20" relative="1" as="geometry">
            <mxPoint x="-27" y="7" as="offset" />
          </mxGeometry>
        </mxCell>
        <mxCell id="7GvROdGBeF6tqrjPkgx6-25" value="&lt;b&gt;memory&lt;/b&gt;" style="shape=umlFrame;whiteSpace=wrap;html=1;pointerEvents=0;width=70;height=30;fillColor=#d5e8d4;strokeColor=#82b366;" vertex="1" parent="1">
          <mxGeometry x="136" y="1260" width="386" height="290" as="geometry" />
        </mxCell>
        <mxCell id="7GvROdGBeF6tqrjPkgx6-26" value="&lt;b&gt;repositories&lt;/b&gt;" style="shape=umlFrame;whiteSpace=wrap;html=1;pointerEvents=0;width=90;height=30;fillColor=#d5e8d4;strokeColor=#82b366;" vertex="1" parent="1">
          <mxGeometry x="552" y="1260" width="240" height="290" as="geometry" />
        </mxCell>
        <mxCell id="7GvROdGBeF6tqrjPkgx6-27" value="ProductRepositoryInMemory" style="html=1;dropTarget=0;whiteSpace=wrap;" vertex="1" parent="1">
          <mxGeometry x="162" y="1310" width="210" height="60" as="geometry" />
        </mxCell>
        <mxCell id="7GvROdGBeF6tqrjPkgx6-28" value="" style="shape=module;jettyWidth=8;jettyHeight=4;" vertex="1" parent="7GvROdGBeF6tqrjPkgx6-27">
          <mxGeometry x="1" width="20" height="20" relative="1" as="geometry">
            <mxPoint x="-27" y="7" as="offset" />
          </mxGeometry>
        </mxCell>
        <mxCell id="7GvROdGBeF6tqrjPkgx6-29" value="OrderRepositoryInMemory" style="html=1;dropTarget=0;whiteSpace=wrap;" vertex="1" parent="1">
          <mxGeometry x="162" y="1385" width="210" height="60" as="geometry" />
        </mxCell>
        <mxCell id="7GvROdGBeF6tqrjPkgx6-30" value="" style="shape=module;jettyWidth=8;jettyHeight=4;" vertex="1" parent="7GvROdGBeF6tqrjPkgx6-29">
          <mxGeometry x="1" width="20" height="20" relative="1" as="geometry">
            <mxPoint x="-27" y="7" as="offset" />
          </mxGeometry>
        </mxCell>
        <mxCell id="7GvROdGBeF6tqrjPkgx6-31" value="CartRepositoryInMemory" style="html=1;dropTarget=0;whiteSpace=wrap;" vertex="1" parent="1">
          <mxGeometry x="162" y="1460" width="210" height="60" as="geometry" />
        </mxCell>
        <mxCell id="7GvROdGBeF6tqrjPkgx6-32" value="" style="shape=module;jettyWidth=8;jettyHeight=4;" vertex="1" parent="7GvROdGBeF6tqrjPkgx6-31">
          <mxGeometry x="1" width="20" height="20" relative="1" as="geometry">
            <mxPoint x="-27" y="7" as="offset" />
          </mxGeometry>
        </mxCell>
        <mxCell id="7GvROdGBeF6tqrjPkgx6-33" value="state" style="html=1;dropTarget=0;whiteSpace=wrap;" vertex="1" parent="1">
          <mxGeometry x="382" y="1385" width="120" height="60" as="geometry" />
        </mxCell>
        <mxCell id="7GvROdGBeF6tqrjPkgx6-34" value="" style="shape=module;jettyWidth=8;jettyHeight=4;" vertex="1" parent="7GvROdGBeF6tqrjPkgx6-33">
          <mxGeometry x="1" width="20" height="20" relative="1" as="geometry">
            <mxPoint x="-27" y="7" as="offset" />
          </mxGeometry>
        </mxCell>
        <mxCell id="7GvROdGBeF6tqrjPkgx6-35" value="CartRepository" style="html=1;dropTarget=0;whiteSpace=wrap;" vertex="1" parent="1">
          <mxGeometry x="582" y="1385" width="180" height="60" as="geometry" />
        </mxCell>
        <mxCell id="7GvROdGBeF6tqrjPkgx6-36" value="" style="shape=module;jettyWidth=8;jettyHeight=4;" vertex="1" parent="7GvROdGBeF6tqrjPkgx6-35">
          <mxGeometry x="1" width="20" height="20" relative="1" as="geometry">
            <mxPoint x="-27" y="7" as="offset" />
          </mxGeometry>
        </mxCell>
        <mxCell id="7GvROdGBeF6tqrjPkgx6-37" value="ProductRepository" style="html=1;dropTarget=0;whiteSpace=wrap;" vertex="1" parent="1">
          <mxGeometry x="582" y="1310" width="180" height="60" as="geometry" />
        </mxCell>
        <mxCell id="7GvROdGBeF6tqrjPkgx6-38" value="" style="shape=module;jettyWidth=8;jettyHeight=4;" vertex="1" parent="7GvROdGBeF6tqrjPkgx6-37">
          <mxGeometry x="1" width="20" height="20" relative="1" as="geometry">
            <mxPoint x="-27" y="7" as="offset" />
          </mxGeometry>
        </mxCell>
        <mxCell id="7GvROdGBeF6tqrjPkgx6-39" value="OrderRepository" style="html=1;dropTarget=0;whiteSpace=wrap;" vertex="1" parent="1">
          <mxGeometry x="582" y="1460" width="180" height="60" as="geometry" />
        </mxCell>
        <mxCell id="7GvROdGBeF6tqrjPkgx6-40" value="" style="shape=module;jettyWidth=8;jettyHeight=4;" vertex="1" parent="7GvROdGBeF6tqrjPkgx6-39">
          <mxGeometry x="1" width="20" height="20" relative="1" as="geometry">
            <mxPoint x="-27" y="7" as="offset" />
          </mxGeometry>
        </mxCell>
        <mxCell id="7GvROdGBeF6tqrjPkgx6-41" value="&lt;b&gt;http&lt;/b&gt;" style="shape=umlFrame;whiteSpace=wrap;html=1;pointerEvents=0;width=70;height=30;fillColor=#ffe6cc;strokeColor=#d79b00;" vertex="1" parent="1">
          <mxGeometry x="94" y="230" width="736" height="380" as="geometry" />
        </mxCell>
        <mxCell id="7GvROdGBeF6tqrjPkgx6-42" value="&lt;b&gt;controllers&lt;/b&gt;" style="shape=umlFrame;whiteSpace=wrap;html=1;pointerEvents=0;width=80;height=30;fillColor=#ffe6cc;strokeColor=#d79b00;" vertex="1" parent="1">
          <mxGeometry x="120" y="280" width="210" height="290" as="geometry" />
        </mxCell>
        <mxCell id="7GvROdGBeF6tqrjPkgx6-43" value="&lt;b&gt;middlewares&lt;/b&gt;" style="shape=umlFrame;whiteSpace=wrap;html=1;pointerEvents=0;width=90;height=30;fillColor=#ffe6cc;strokeColor=#d79b00;" vertex="1" parent="1">
          <mxGeometry x="350" y="280" width="220" height="130" as="geometry" />
        </mxCell>
        <mxCell id="7GvROdGBeF6tqrjPkgx6-44" value="&lt;b&gt;routes&lt;/b&gt;" style="shape=umlFrame;whiteSpace=wrap;html=1;pointerEvents=0;width=90;height=30;fillColor=#ffe6cc;strokeColor=#d79b00;" vertex="1" parent="1">
          <mxGeometry x="590" y="280" width="210" height="290" as="geometry" />
        </mxCell>
        <mxCell id="7GvROdGBeF6tqrjPkgx6-45" value="ProductsController" style="html=1;dropTarget=0;whiteSpace=wrap;" vertex="1" parent="1">
          <mxGeometry x="135" y="330" width="180" height="60" as="geometry" />
        </mxCell>
        <mxCell id="7GvROdGBeF6tqrjPkgx6-46" value="" style="shape=module;jettyWidth=8;jettyHeight=4;" vertex="1" parent="7GvROdGBeF6tqrjPkgx6-45">
          <mxGeometry x="1" width="20" height="20" relative="1" as="geometry">
            <mxPoint x="-27" y="7" as="offset" />
          </mxGeometry>
        </mxCell>
        <mxCell id="7GvROdGBeF6tqrjPkgx6-47" value="CartController" style="html=1;dropTarget=0;whiteSpace=wrap;" vertex="1" parent="1">
          <mxGeometry x="135" y="410" width="180" height="60" as="geometry" />
        </mxCell>
        <mxCell id="7GvROdGBeF6tqrjPkgx6-48" value="" style="shape=module;jettyWidth=8;jettyHeight=4;" vertex="1" parent="7GvROdGBeF6tqrjPkgx6-47">
          <mxGeometry x="1" width="20" height="20" relative="1" as="geometry">
            <mxPoint x="-27" y="7" as="offset" />
          </mxGeometry>
        </mxCell>
        <mxCell id="7GvROdGBeF6tqrjPkgx6-49" value="OrdersController" style="html=1;dropTarget=0;whiteSpace=wrap;" vertex="1" parent="1">
          <mxGeometry x="135" y="490" width="180" height="60" as="geometry" />
        </mxCell>
        <mxCell id="7GvROdGBeF6tqrjPkgx6-50" value="" style="shape=module;jettyWidth=8;jettyHeight=4;" vertex="1" parent="7GvROdGBeF6tqrjPkgx6-49">
          <mxGeometry x="1" width="20" height="20" relative="1" as="geometry">
            <mxPoint x="-27" y="7" as="offset" />
          </mxGeometry>
        </mxCell>
        <mxCell id="7GvROdGBeF6tqrjPkgx6-51" value="errorMiddleware" style="html=1;dropTarget=0;whiteSpace=wrap;" vertex="1" parent="1">
          <mxGeometry x="370" y="330" width="180" height="60" as="geometry" />
        </mxCell>
        <mxCell id="7GvROdGBeF6tqrjPkgx6-52" value="" style="shape=module;jettyWidth=8;jettyHeight=4;" vertex="1" parent="7GvROdGBeF6tqrjPkgx6-51">
          <mxGeometry x="1" width="20" height="20" relative="1" as="geometry">
            <mxPoint x="-27" y="7" as="offset" />
          </mxGeometry>
        </mxCell>
        <mxCell id="7GvROdGBeF6tqrjPkgx6-53" value="ProductsRoutes" style="html=1;dropTarget=0;whiteSpace=wrap;" vertex="1" parent="1">
          <mxGeometry x="610" y="330" width="180" height="60" as="geometry" />
        </mxCell>
        <mxCell id="7GvROdGBeF6tqrjPkgx6-54" value="" style="shape=module;jettyWidth=8;jettyHeight=4;" vertex="1" parent="7GvROdGBeF6tqrjPkgx6-53">
          <mxGeometry x="1" width="20" height="20" relative="1" as="geometry">
            <mxPoint x="-27" y="7" as="offset" />
          </mxGeometry>
        </mxCell>
        <mxCell id="7GvROdGBeF6tqrjPkgx6-55" value="CartRoutes" style="html=1;dropTarget=0;whiteSpace=wrap;" vertex="1" parent="1">
          <mxGeometry x="610" y="410" width="180" height="60" as="geometry" />
        </mxCell>
        <mxCell id="7GvROdGBeF6tqrjPkgx6-56" value="" style="shape=module;jettyWidth=8;jettyHeight=4;" vertex="1" parent="7GvROdGBeF6tqrjPkgx6-55">
          <mxGeometry x="1" width="20" height="20" relative="1" as="geometry">
            <mxPoint x="-27" y="7" as="offset" />
          </mxGeometry>
        </mxCell>
        <mxCell id="7GvROdGBeF6tqrjPkgx6-57" value="OrdersRoutes" style="html=1;dropTarget=0;whiteSpace=wrap;" vertex="1" parent="1">
          <mxGeometry x="610" y="490" width="180" height="60" as="geometry" />
        </mxCell>
        <mxCell id="7GvROdGBeF6tqrjPkgx6-58" value="" style="shape=module;jettyWidth=8;jettyHeight=4;" vertex="1" parent="7GvROdGBeF6tqrjPkgx6-57">
          <mxGeometry x="1" width="20" height="20" relative="1" as="geometry">
            <mxPoint x="-27" y="7" as="offset" />
          </mxGeometry>
        </mxCell>
        <mxCell id="7GvROdGBeF6tqrjPkgx6-59" value="index.js" style="html=1;dropTarget=0;whiteSpace=wrap;" vertex="1" parent="1">
          <mxGeometry x="370" y="510" width="180" height="60" as="geometry" />
        </mxCell>
        <mxCell id="7GvROdGBeF6tqrjPkgx6-60" value="" style="shape=module;jettyWidth=8;jettyHeight=4;" vertex="1" parent="7GvROdGBeF6tqrjPkgx6-59">
          <mxGeometry x="1" width="20" height="20" relative="1" as="geometry">
            <mxPoint x="-27" y="7" as="offset" />
          </mxGeometry>
        </mxCell>
        <mxCell id="7GvROdGBeF6tqrjPkgx6-61" value="index.js" style="html=1;dropTarget=0;whiteSpace=wrap;" vertex="1" parent="1">
          <mxGeometry x="370" y="1630" width="180" height="60" as="geometry" />
        </mxCell>
        <mxCell id="7GvROdGBeF6tqrjPkgx6-62" value="" style="shape=module;jettyWidth=8;jettyHeight=4;" vertex="1" parent="7GvROdGBeF6tqrjPkgx6-61">
          <mxGeometry x="1" width="20" height="20" relative="1" as="geometry">
            <mxPoint x="-27" y="7" as="offset" />
          </mxGeometry>
        </mxCell>
        <mxCell id="7GvROdGBeF6tqrjPkgx6-63" style="edgeStyle=orthogonalEdgeStyle;rounded=0;orthogonalLoop=1;jettySize=auto;html=1;exitX=0.514;exitY=1.01;exitDx=0;exitDy=0;exitPerimeter=0;" edge="1" parent="1" source="7GvROdGBeF6tqrjPkgx6-42">
          <mxGeometry relative="1" as="geometry">
            <mxPoint x="400" y="751" as="targetPoint" />
            <Array as="points">
              <mxPoint x="228" y="670" />
              <mxPoint x="400" y="670" />
              <mxPoint x="400" y="751" />
            </Array>
          </mxGeometry>
        </mxCell>
        <mxCell id="7GvROdGBeF6tqrjPkgx6-64" style="edgeStyle=orthogonalEdgeStyle;rounded=0;orthogonalLoop=1;jettySize=auto;html=1;entryX=0.483;entryY=0.003;entryDx=0;entryDy=0;entryPerimeter=0;dashed=1;dashPattern=8 8;exitX=0.498;exitY=1;exitDx=0;exitDy=0;exitPerimeter=0;" edge="1" parent="1" source="7GvROdGBeF6tqrjPkgx6-6" target="7GvROdGBeF6tqrjPkgx6-26">
          <mxGeometry relative="1" as="geometry" />
        </mxCell>
        <mxCell id="7GvROdGBeF6tqrjPkgx6-65" style="edgeStyle=orthogonalEdgeStyle;rounded=0;orthogonalLoop=1;jettySize=auto;html=1;entryX=1.005;entryY=0.5;entryDx=0;entryDy=0;entryPerimeter=0;dashed=1;dashPattern=8 8;" edge="1" parent="1" source="7GvROdGBeF6tqrjPkgx6-26" target="7GvROdGBeF6tqrjPkgx6-25">
          <mxGeometry relative="1" as="geometry" />
        </mxCell>
        <mxCell id="7GvROdGBeF6tqrjPkgx6-66" style="edgeStyle=orthogonalEdgeStyle;rounded=0;orthogonalLoop=1;jettySize=auto;html=1;entryX=0.5;entryY=1;entryDx=0;entryDy=0;" edge="1" parent="1" source="7GvROdGBeF6tqrjPkgx6-61" target="7GvROdGBeF6tqrjPkgx6-59">
          <mxGeometry relative="1" as="geometry">
            <Array as="points">
              <mxPoint x="870" y="1660" />
              <mxPoint x="870" y="660" />
              <mxPoint x="460" y="660" />
            </Array>
          </mxGeometry>
        </mxCell>
        <mxCell id="7GvROdGBeF6tqrjPkgx6-67" style="edgeStyle=orthogonalEdgeStyle;rounded=0;orthogonalLoop=1;jettySize=auto;html=1;entryX=0.491;entryY=1;entryDx=0;entryDy=0;entryPerimeter=0;exitX=-0.01;exitY=0.517;exitDx=0;exitDy=0;exitPerimeter=0;" edge="1" parent="1" source="7GvROdGBeF6tqrjPkgx6-44" target="7GvROdGBeF6tqrjPkgx6-43">
          <mxGeometry relative="1" as="geometry" />
        </mxCell>
        <mxCell id="7GvROdGBeF6tqrjPkgx6-68" style="edgeStyle=orthogonalEdgeStyle;rounded=0;orthogonalLoop=1;jettySize=auto;html=1;entryX=1.014;entryY=0.569;entryDx=0;entryDy=0;entryPerimeter=0;exitX=0.327;exitY=1.008;exitDx=0;exitDy=0;exitPerimeter=0;" edge="1" parent="1" source="7GvROdGBeF6tqrjPkgx6-43" target="7GvROdGBeF6tqrjPkgx6-42">
          <mxGeometry relative="1" as="geometry" />
        </mxCell>
        <mxCell id="7GvROdGBeF6tqrjPkgx6-69" style="edgeStyle=orthogonalEdgeStyle;rounded=0;orthogonalLoop=1;jettySize=auto;html=1;entryX=-0.01;entryY=0.662;entryDx=0;entryDy=0;entryPerimeter=0;" edge="1" parent="1" source="7GvROdGBeF6tqrjPkgx6-59" target="7GvROdGBeF6tqrjPkgx6-44">
          <mxGeometry relative="1" as="geometry" />
        </mxCell>
      </root>
    </mxGraphModel>
  </diagram>
</mxfile>
